<svg xmlns="http://www.w3.org/2000/svg" viewBox="0 0 64 64" width="64px" height="64px"><linearGradient id="3EKkqKyhg9bUZUsR~hcGVa" x1="32.001" x2="32.001" y1="9" y2="54" gradientUnits="userSpaceOnUse" spreadMethod="reflect"><stop offset="0" stop-color="#1a6dff"/><stop offset="1" stop-color="#c822ff"/></linearGradient><path fill="url(#3EKkqKyhg9bUZUsR~hcGVa)" d="M57.98,38.83c-0.01-0.03-0.01-0.05-0.01-0.08c-0.02-0.07-0.05-0.13-0.08-0.19 c-0.01-0.02-0.01-0.04-0.02-0.05c0,0,0,0,0-0.01L41.2,9.5C41.02,9.19,40.69,9,40.33,9H23.67c-0.37,0-0.69,0.19-0.87,0.5L6.13,38.32 c-0.17,0.3-0.17,0.69,0,1l8.19,14.18c0.18,0.31,0.5,0.5,0.86,0.5h33.49c0.35,0,0.68-0.19,0.86-0.49l8.33-14c0-0.01,0-0.01,0.01-0.01 c0.02-0.04,0.03-0.08,0.05-0.13c0.01-0.03,0.03-0.07,0.04-0.11c0.02-0.05,0.02-0.1,0.03-0.15c0-0.03,0.01-0.07,0.01-0.1 C58,38.95,57.99,38.89,57.98,38.83z M8.15,38.82L23.66,12l7.14,12.41l-15.61,26.6L8.15,38.82z M31.94,26.41L38.61,38H25.14 L31.94,26.41z M48.1,52H16.93l7.04-12h31.27L48.1,52z M40.91,38l-8.85-15.41L25.39,11h14.36l15.52,27H40.91z"/><linearGradient id="3EKkqKyhg9bUZUsR~hcGVb" x1="36.07" x2="36.07" y1="42" y2="50" gradientUnits="userSpaceOnUse" spreadMethod="reflect"><stop offset="0" stop-color="#6dc7ff"/><stop offset="1" stop-color="#e6abff"/></linearGradient><path fill="url(#3EKkqKyhg9bUZUsR~hcGVb)" d="M51.72 42L46.96 50 20.42 50 25.12 42z"/></svg>